<svg xmlns="http://www.w3.org/2000/svg" viewBox="0 0 512 512" role="img" aria-label="Dashboard">
  <rect width="512" height="512" rx="96" fill="#1e3a6e"/>
  <path d="M112 344c0-17.7 14.3-32 32-32h42c17.7 0 32 14.3 32 32v64h-74c-17.7 0-32-14.3-32-32v-32Z" fill="#ffffff"/>
  <path d="M228 232c0-17.7 14.3-32 32-32h42c17.7 0 32 14.3 32 32v176H228V232Z" fill="#bfdbfe"/>
  <path d="M344 136c0-17.7 14.3-32 32-32h42c17.7 0 32 14.3 32 32v240c0 17.7-14.3 32-32 32h-74V136Z" fill="#60a5fa"/>
  <path d="M96 108c0-24.3 19.7-44 44-44h232" stroke="#93c5fd" stroke-width="22" stroke-linecap="round" opacity=".65"/>
  <circle cx="118" cy="110" r="18" fill="#ffffff"/>
</svg>
